<?xml version="1.0" encoding="utf-8"?>
<!-- Generator: Adobe Illustrator 22.1.0, SVG Export Plug-In . SVG Version: 6.00 Build 0)  -->
<svg version="1.1" id="Layer_1" xmlns="http://www.w3.org/2000/svg" xmlns:xlink="http://www.w3.org/1999/xlink" x="0px" y="0px"
	 viewBox="0 0 512 512" style="enable-background:new 0 0 512 512;" xml:space="preserve">
<g fill="none" stroke="white">
	<path  stroke-width="10" id="codepen" d="M472.5,171.4L266.8,34.3c-7-4.3-14.5-4.4-21.6,0L39.5,171.4c-5.3,3.5-8.5,9.8-8.5,16.1v137.1c0,6.3,3.3,12.6,8.5,16.1
		l205.7,137.1c7,4.3,14.5,4.4,21.6,0l205.7-137.1c5.3-3.5,8.5-9.8,8.5-16.1V187.4C481,181.2,477.7,174.9,472.5,171.4L472.5,171.4z
		 M275.3,86.5l151.4,100.9l-67.5,45.2l-83.9-56V86.5z M236.7,86.5v90.2l-83.9,56l-67.5-45.2L236.7,86.5z M69.7,223.6l48.5,32.4
		l-48.5,32.4V223.6L69.7,223.6z M236.7,425.5L85.2,324.5l67.5-45.2l83.9,56V425.5z M256,301.7L187.7,256l68.3-45.7l68.3,45.7
		L256,301.7z M275.3,425.5v-90.2l83.9-56l67.5,45.2L275.3,425.5z M442.3,288.4L393.9,256l48.5-32.4V288.4L442.3,288.4z"/>
</g>
</svg>
